<svg xmlns="http://www.w3.org/2000/svg" xmlns:xlink="http://www.w3.org/1999/xlink" width="500" zoomAndPan="magnify" viewBox="0 0 375 374.999991" height="500" preserveAspectRatio="xMidYMid meet" version="1.0"><defs><g/><clipPath id="73dd5e7c0a"><path d="M 0 68 L 187.5 68 L 187.5 308.996094 L 0 308.996094 Z M 0 68 " clip-rule="nonzero"/></clipPath></defs><g clip-path="url(#73dd5e7c0a)"><path fill="#8a8c80" d="M 0 68 L 187.5 68 L 187.5 308.964844 L 0 308.964844 Z M 0 68 " fill-opacity="1" fill-rule="nonzero"/></g><g fill="#d6d9d2" fill-opacity="1"><g transform="translate(18.667972, 266.123658)"><g><path d="M 7.640625 -129.25 L 7.640625 -156.546875 L 136.21875 -156.546875 L 136.21875 -129.25 L 88.28125 -129.25 L 88.28125 0 L 55.578125 0 L 55.578125 -129.25 Z M 7.640625 -129.25 "/></g></g></g><g fill="#000000" fill-opacity="1"><g transform="translate(162.539056, 266.123658)"><g/></g></g><g fill="#8a8c80" fill-opacity="1"><g transform="translate(212.460928, 266.123658)"><g><path d="M 7.640625 -129.25 L 7.640625 -156.546875 L 136.21875 -156.546875 L 136.21875 -129.25 L 88.28125 -129.25 L 88.28125 0 L 55.578125 0 L 55.578125 -129.25 Z M 7.640625 -129.25 "/></g></g></g></svg>